<?xml version="1.0" encoding="UTF-8" standalone="no"?>
<!DOCTYPE svg PUBLIC "-//W3C//DTD SVG 1.0//EN" "http://www.w3.org/TR/2001/PR-SVG-20010719/DTD/svg10.dtd">
<svg width="56cm" height="41cm" viewBox="-4 19 1116 815" xmlns="http://www.w3.org/2000/svg" xmlns:xlink="http://www.w3.org/1999/xlink">
  <text font-size="22.5778" style="fill: #000000;text-anchor:start;font-family:sans-serif;font-style:normal;font-weight:700" x="834" y="686">
    <tspan x="834" y="686">MARCHING BAND</tspan>
  </text>
  <g>
    <rect style="fill: #ffffff" x="640" y="160" width="81.9" height="36"/>
    <rect style="fill: none; fill-opacity:0; stroke-width: 2; stroke: #000000" x="640" y="160" width="81.9" height="36"/>
    <text font-size="12.8" style="fill: #000000;text-anchor:middle;font-family:monospace;font-style:normal;font-weight:normal" x="680.95" y="182">Student</text>
  </g>
  <g>
    <ellipse style="fill: #ffffff" cx="700" cy="380" rx="20" ry="20"/>
    <ellipse style="fill: none; fill-opacity:0; stroke-width: 2; stroke: #000000" cx="700" cy="380" rx="20" ry="20"/>
    <ellipse style="fill: none; fill-opacity:0; stroke-width: 2; stroke: #000000" cx="700" cy="380" rx="20" ry="20"/>
  </g>
  <g>
    <polyline style="fill: none; fill-opacity:0; stroke-width: 2; stroke: #000000" points="683.45,196 683.45,275.5 702.5,275.5 702.5,360 "/>
    <polyline style="fill: none; fill-opacity:0; stroke-width: 2; stroke: #000000" points="678.45,196 678.45,280.5 697.5,280.5 697.5,360 "/>
  </g>
  <text font-size="12.8" style="fill: #000000;text-anchor:start;font-family:sans-serif;font-style:normal;font-weight:normal" x="700" y="380">
    <tspan x="700" y="380">D</tspan>
  </text>
  <g>
    <rect style="fill: #ffffff" x="760" y="460" width="105" height="36"/>
    <rect style="fill: none; fill-opacity:0; stroke-width: 2; stroke: #000000" x="760" y="460" width="105" height="36"/>
    <text font-size="12.8" style="fill: #000000;text-anchor:middle;font-family:monospace;font-style:normal;font-weight:normal" x="812.5" y="482">Drum Major</text>
  </g>
  <g>
    <rect style="fill: #ffffff" x="560" y="320" width="81.9" height="36"/>
    <rect style="fill: none; fill-opacity:0; stroke-width: 2; stroke: #000000" x="560" y="320" width="81.9" height="36"/>
    <text font-size="12.8" style="fill: #000000;text-anchor:middle;font-family:monospace;font-style:normal;font-weight:normal" x="600.95" y="342">Marcher</text>
  </g>
  <line style="fill: none; fill-opacity:0; stroke-width: 2; stroke: #000000" x1="700" y1="400" x2="812.5" y2="460"/>
  <line style="fill: none; fill-opacity:0; stroke-width: 2; stroke: #000000" x1="680" y1="380" x2="641.9" y2="338"/>
  <g>
    <ellipse style="fill: #ffffff" cx="614.65" cy="98" rx="54.65" ry="18"/>
    <ellipse style="fill: none; fill-opacity:0; stroke-width: 2; stroke: #000000" cx="614.65" cy="98" rx="54.65" ry="18"/>
    <text font-size="12.8" style="fill: #000000;text-anchor:middle;font-family:monospace;font-style:normal;font-weight:normal" x="614.65" y="102">StudentID</text>
    <line style="fill: none; fill-opacity:0; stroke-width: 2; stroke: #000000" x1="580" y1="106" x2="649.3" y2="106"/>
  </g>
  <g>
    <ellipse style="fill: #ffffff" cx="715.4" cy="78" rx="35.4" ry="18"/>
    <ellipse style="fill: none; fill-opacity:0; stroke-width: 2; stroke: #000000" cx="715.4" cy="78" rx="35.4" ry="18"/>
    <text font-size="12.8" style="fill: #000000;text-anchor:middle;font-family:monospace;font-style:normal;font-weight:normal" x="715.4" y="82">Name</text>
  </g>
  <g>
    <ellipse style="fill: #ffffff" cx="819.25" cy="98" rx="39.25" ry="18"/>
    <ellipse style="fill: none; fill-opacity:0; stroke-width: 2; stroke: #000000" cx="819.25" cy="98" rx="39.25" ry="18"/>
    <text font-size="12.8" style="fill: #000000;text-anchor:middle;font-family:monospace;font-style:normal;font-weight:normal" x="819.25" y="102">Major</text>
  </g>
  <line style="fill: none; fill-opacity:0; stroke-width: 2; stroke: #000000" x1="653.294" y1="110.728" x2="680.95" y2="160"/>
  <line style="fill: none; fill-opacity:0; stroke-width: 2; stroke: #000000" x1="715.4" y1="96" x2="680.95" y2="160"/>
  <line style="fill: none; fill-opacity:0; stroke-width: 2; stroke: #000000" x1="819.25" y1="116" x2="680.95" y2="160"/>
  <g>
    <rect style="fill: #ffffff" x="89" y="85" width="74.2" height="36"/>
    <rect style="fill: none; fill-opacity:0; stroke-width: 2; stroke: #000000" x="89" y="85" width="74.2" height="36"/>
    <text font-size="12.8" style="fill: #000000;text-anchor:middle;font-family:monospace;font-style:normal;font-weight:normal" x="126.1" y="107">Season</text>
  </g>
  <g>
    <rect style="fill: #ffffff" x="139" y="651" width="58.8" height="36"/>
    <rect style="fill: none; fill-opacity:0; stroke-width: 2; stroke: #000000" x="139" y="651" width="58.8" height="36"/>
    <text font-size="12.8" style="fill: #000000;text-anchor:middle;font-family:monospace;font-style:normal;font-weight:normal" x="168.4" y="673">Song</text>
  </g>
  <g>
    <rect style="fill: #ffffff" x="952" y="378" width="81.9" height="36"/>
    <rect style="fill: none; fill-opacity:0; stroke-width: 2; stroke: #000000" x="952" y="378" width="81.9" height="36"/>
    <text font-size="12.8" style="fill: #000000;text-anchor:middle;font-family:monospace;font-style:normal;font-weight:normal" x="992.95" y="400">Uniform</text>
  </g>
  <g>
    <polygon style="fill: #ffffff" points="780,275.1 838.5,240 897,275.1 838.5,310.2 "/>
    <polygon style="fill: none; fill-opacity:0; stroke-width: 2; stroke: #000000" points="780,275.1 838.5,240 897,275.1 838.5,310.2 "/>
    <text font-size="12.8" style="fill: #000000;text-anchor:end;font-family:monospace;font-style:normal;font-weight:normal" x="774" y="269.1">1</text>
    <text font-size="12.8" style="fill: #000000;text-anchor:start;font-family:monospace;font-style:normal;font-weight:normal" x="903" y="269.1">1</text>
    <text font-size="12.8" style="fill: #000000;text-anchor:middle;font-family:monospace;font-style:normal;font-weight:normal" x="838.5" y="279.1">CHECKS_OUT</text>
  </g>
  <g>
    <ellipse style="fill: #ffffff" cx="50.8" cy="38" rx="50.8" ry="18"/>
    <ellipse style="fill: none; fill-opacity:0; stroke-width: 2; stroke: #000000" cx="50.8" cy="38" rx="50.8" ry="18"/>
    <text font-size="12.8" style="fill: #000000;text-anchor:middle;font-family:monospace;font-style:normal;font-weight:normal" x="50.8" y="42">TermCode</text>
    <line style="fill: none; fill-opacity:0; stroke-width: 2; stroke: #000000" x1="20" y1="46" x2="81.6" y2="46"/>
  </g>
  <g>
    <ellipse style="fill: #ffffff" cx="222.35" cy="38" rx="62.35" ry="18"/>
    <ellipse style="fill: none; fill-opacity:0; stroke-width: 2; stroke: #000000" cx="222.35" cy="38" rx="62.35" ry="18"/>
    <text font-size="12.8" style="fill: #000000;text-anchor:middle;font-family:monospace;font-style:normal;font-weight:normal" x="222.35" y="42">Description</text>
  </g>
  <g>
    <ellipse style="fill: #ffffff" cx="50.1" cy="676" rx="43.1" ry="18"/>
    <ellipse style="fill: none; fill-opacity:0; stroke-width: 2; stroke: #000000" cx="50.1" cy="676" rx="43.1" ry="18"/>
    <text font-size="12.8" style="fill: #000000;text-anchor:middle;font-family:monospace;font-style:normal;font-weight:normal" x="50.1" y="680">SongID</text>
    <line style="fill: none; fill-opacity:0; stroke-width: 2; stroke: #000000" x1="27" y1="684" x2="73.2" y2="684"/>
  </g>
  <g>
    <ellipse style="fill: #ffffff" cx="69.25" cy="778" rx="39.25" ry="18"/>
    <ellipse style="fill: none; fill-opacity:0; stroke-width: 2; stroke: #000000" cx="69.25" cy="778" rx="39.25" ry="18"/>
    <text font-size="12.8" style="fill: #000000;text-anchor:middle;font-family:monospace;font-style:normal;font-weight:normal" x="69.25" y="782">Title</text>
  </g>
  <g>
    <ellipse style="fill: #ffffff" cx="54.8" cy="734" rx="50.8" ry="18"/>
    <ellipse style="fill: none; fill-opacity:0; stroke-width: 2; stroke: #000000" cx="54.8" cy="734" rx="50.8" ry="18"/>
    <ellipse style="fill: none; fill-opacity:0; stroke-width: 2; stroke: #000000" cx="54.8" cy="734" rx="42.8" ry="14"/>
    <text font-size="12.8" style="fill: #000000;text-anchor:middle;font-family:monospace;font-style:normal;font-weight:normal" x="54.8" y="738">Composer</text>
  </g>
  <g>
    <ellipse style="fill: #ffffff" cx="1056.65" cy="266" rx="54.65" ry="18"/>
    <ellipse style="fill: none; fill-opacity:0; stroke-width: 2; stroke: #000000" cx="1056.65" cy="266" rx="54.65" ry="18"/>
    <text font-size="12.8" style="fill: #000000;text-anchor:middle;font-family:monospace;font-style:normal;font-weight:normal" x="1056.65" y="270">UniformID</text>
    <line style="fill: none; fill-opacity:0; stroke-width: 2; stroke: #000000" x1="1022" y1="274" x2="1091.3" y2="274"/>
  </g>
  <g>
    <ellipse style="fill: #ffffff" cx="974.2" cy="193" rx="66.2" ry="18"/>
    <ellipse style="fill: none; fill-opacity:0; stroke-width: 2; stroke: #000000" cx="974.2" cy="193" rx="66.2" ry="18"/>
    <text font-size="12.8" style="fill: #000000;text-anchor:middle;font-family:monospace;font-style:normal;font-weight:normal" x="974.2" y="197">PurchaseDate</text>
  </g>
  <line style="fill: none; fill-opacity:0; stroke-width: 2; stroke: #000000" x1="50.8" y1="56" x2="129.85" y2="85"/>
  <line style="fill: none; fill-opacity:0; stroke-width: 2; stroke: #000000" x1="222.35" y1="56" x2="129.85" y2="85"/>
  <line style="fill: none; fill-opacity:0; stroke-width: 2; stroke: #000000" x1="981.7" y1="211" x2="997.324" y2="378"/>
  <g>
    <rect style="fill: #ffffff" x="140" y="380" width="58.8" height="36"/>
    <rect style="fill: none; fill-opacity:0; stroke-width: 2; stroke: #000000" x="140" y="380" width="58.8" height="36"/>
    <rect style="fill: none; fill-opacity:0; stroke-width: 2; stroke: #000000" x="145" y="385" width="48.8" height="26"/>
    <text font-size="12.8" style="fill: #000000;text-anchor:middle;font-family:monospace;font-style:normal;font-weight:normal" x="169.4" y="402">Show</text>
  </g>
  <g>
    <polygon style="fill: #ffffff" points="320,257.41 382.35,220 444.7,257.41 382.35,294.82 "/>
    <polygon style="fill: none; fill-opacity:0; stroke-width: 2; stroke: #000000" points="320,257.41 382.35,220 444.7,257.41 382.35,294.82 "/>
    <text font-size="12.8" style="fill: #000000;text-anchor:end;font-family:monospace;font-style:normal;font-weight:normal" x="314" y="251.41">N</text>
    <text font-size="12.8" style="fill: #000000;text-anchor:start;font-family:monospace;font-style:normal;font-weight:normal" x="450.7" y="251.41">M</text>
    <text font-size="12.8" style="fill: #000000;text-anchor:middle;font-family:monospace;font-style:normal;font-weight:normal" x="382.35" y="261.41">PARTICIPATE</text>
  </g>
  <g>
    <polygon style="fill: #ffffff" points="60,237.41 122.35,200 184.7,237.41 122.35,274.82 "/>
    <polygon style="fill: none; fill-opacity:0; stroke-width: 2; stroke: #000000" points="60,237.41 122.35,200 184.7,237.41 122.35,274.82 "/>
    <polygon style="fill: none; fill-opacity:0; stroke-width: 2; stroke: #000000" points="68,237.41 122.35,204.8 176.7,237.41 122.35,270.02 "/>
    <text font-size="12.8" style="fill: #000000;text-anchor:start;font-family:monospace;font-style:normal;font-weight:normal" x="126.35" y="194">1</text>
    <text font-size="12.8" style="fill: #000000;text-anchor:start;font-family:monospace;font-style:normal;font-weight:normal" x="126.35" y="296.82">N</text>
    <text font-size="12.8" style="fill: #000000;text-anchor:middle;font-family:monospace;font-style:normal;font-weight:normal" x="122.35" y="241.41">COMPOSED_OF</text>
  </g>
  <g>
    <polygon style="fill: #ffffff" points="102,549.41 164.35,512 226.7,549.41 164.35,586.82 "/>
    <polygon style="fill: none; fill-opacity:0; stroke-width: 2; stroke: #000000" points="102,549.41 164.35,512 226.7,549.41 164.35,586.82 "/>
    <text font-size="12.8" style="fill: #000000;text-anchor:start;font-family:monospace;font-style:normal;font-weight:normal" x="168.35" y="506">M</text>
    <text font-size="12.8" style="fill: #000000;text-anchor:start;font-family:monospace;font-style:normal;font-weight:normal" x="168.35" y="608.82">N</text>
    <text font-size="12.8" style="fill: #000000;text-anchor:middle;font-family:monospace;font-style:normal;font-weight:normal" x="164.35" y="553.41">COMPOSED_OF</text>
  </g>
  <g>
    <ellipse style="fill: #ffffff" cx="35.4" cy="378" rx="35.4" ry="18"/>
    <ellipse style="fill: none; fill-opacity:0; stroke-width: 2; stroke: #000000" cx="35.4" cy="378" rx="35.4" ry="18"/>
    <text font-size="12.8" style="fill: #000000;text-anchor:middle;font-family:monospace;font-style:normal;font-weight:normal" x="35.4" y="382">Date</text>
  </g>
  <g>
    <ellipse style="fill: #ffffff" cx="338.5" cy="158" rx="58.5" ry="18"/>
    <ellipse style="fill: none; fill-opacity:0; stroke-width: 2; stroke: #000000" cx="338.5" cy="158" rx="58.5" ry="18"/>
    <text font-size="12.8" style="fill: #000000;text-anchor:middle;font-family:monospace;font-style:normal;font-weight:normal" x="338.5" y="162">Instrument</text>
  </g>
  <polyline style="fill: none; fill-opacity:0; stroke-width: 2; stroke: #000000" points="560,338 502.35,338 502.35,257.41 444.7,257.41 "/>
  <polyline style="fill: none; fill-opacity:0; stroke-width: 2; stroke: #000000" points="198.8,398 259.4,398 259.4,257.41 320,257.41 "/>
  <polyline style="fill: none; fill-opacity:0; stroke-width: 2; stroke: #000000" points="122.35,200 122.35,160.5 126.1,160.5 126.1,121 "/>
  <g>
    <polyline style="fill: none; fill-opacity:0; stroke-width: 2; stroke: #000000" points="124.85,274.82 124.85,324.91 171.9,324.91 171.9,380 "/>
    <polyline style="fill: none; fill-opacity:0; stroke-width: 2; stroke: #000000" points="119.85,274.82 119.85,329.91 166.9,329.91 166.9,380 "/>
  </g>
  <g>
    <polyline style="fill: none; fill-opacity:0; stroke-width: 2; stroke: #000000" points="171.9,416 171.9,466.5 166.85,466.5 166.85,512 "/>
    <polyline style="fill: none; fill-opacity:0; stroke-width: 2; stroke: #000000" points="166.9,416 166.9,461.5 161.85,461.5 161.85,512 "/>
  </g>
  <polyline style="fill: none; fill-opacity:0; stroke-width: 2; stroke: #000000" points="164.35,586.82 164.35,618.91 168.4,618.91 168.4,651 "/>
  <g>
    <polyline style="fill: none; fill-opacity:0; stroke-width: 2; stroke: #000000" points="721.9,175.5 753.45,175.5 753.45,272.6 780,272.6 "/>
    <polyline style="fill: none; fill-opacity:0; stroke-width: 2; stroke: #000000" points="721.9,180.5 748.45,180.5 748.45,277.6 780,277.6 "/>
  </g>
  <polyline style="fill: none; fill-opacity:0; stroke-width: 2; stroke: #000000" points="897,275.1 924.5,275.1 924.5,396 952,396 "/>
  <line style="fill: none; fill-opacity:0; stroke-width: 2; stroke: #000000" x1="344.75" y1="176" x2="382.35" y2="220"/>
  <line style="fill: none; fill-opacity:0; stroke-width: 2; stroke: #000000" x1="70.8" y1="378" x2="140" y2="398"/>
  <line style="fill: none; fill-opacity:0; stroke-width: 2; stroke: #000000" x1="93.2" y1="676" x2="139" y2="669"/>
  <line style="fill: none; fill-opacity:0; stroke-width: 2; stroke: #000000" x1="90.721" y1="721.272" x2="170.9" y2="687"/>
  <line style="fill: none; fill-opacity:0; stroke-width: 2; stroke: #000000" x1="170.9" y1="687" x2="97.0039" y2="765.272"/>
  <g>
    <ellipse style="fill: #ffffff" cx="39.25" cy="438" rx="39.25" ry="18"/>
    <ellipse style="fill: none; fill-opacity:0; stroke-width: 2; stroke: #000000" cx="39.25" cy="438" rx="39.25" ry="18"/>
    <text font-size="12.8" style="fill: #000000;text-anchor:middle;font-family:monospace;font-style:normal;font-weight:normal" x="39.25" y="442">Title</text>
    <line style="fill: none; fill-opacity:0; stroke-width: 2; stroke-dasharray: 6; stroke: #000000" x1="20" y1="446" x2="58.5" y2="446"/>
  </g>
  <line style="fill: none; fill-opacity:0; stroke-width: 2; stroke: #000000" x1="78.5" y1="438" x2="140" y2="398"/>
  <line style="fill: none; fill-opacity:0; stroke-width: 2; stroke: #000000" x1="1019.65" y1="278.728" x2="997.324" y2="378"/>
  <g>
    <ellipse style="fill: #ffffff" cx="37.25" cy="550" rx="39.25" ry="18"/>
    <ellipse style="fill: none; fill-opacity:0; stroke-width: 2; stroke: #000000" cx="37.25" cy="550" rx="39.25" ry="18"/>
    <text font-size="12.8" style="fill: #000000;text-anchor:middle;font-family:monospace;font-style:normal;font-weight:normal" x="37.25" y="554">order</text>
  </g>
  <line style="fill: none; fill-opacity:0; stroke-width: 2; stroke: #000000" x1="102" y1="549.41" x2="76.5" y2="550"/>
  <g>
    <rect style="fill: #ffffff" x="443" y="615" width="135.8" height="36"/>
    <rect style="fill: none; fill-opacity:0; stroke-width: 2; stroke: #000000" x="443" y="615" width="135.8" height="36"/>
    <rect style="fill: none; fill-opacity:0; stroke-width: 2; stroke: #000000" x="448" y="620" width="125.8" height="26"/>
    <text font-size="12.8" style="fill: #000000;text-anchor:middle;font-family:monospace;font-style:normal;font-weight:normal" x="510.9" y="637">Lead Conductor</text>
  </g>
  <g>
    <polygon style="fill: #ffffff" points="670,631.17 716.95,603 763.9,631.17 716.95,659.34 "/>
    <polygon style="fill: none; fill-opacity:0; stroke-width: 2; stroke: #000000" points="670,631.17 716.95,603 763.9,631.17 716.95,659.34 "/>
    <polygon style="fill: none; fill-opacity:0; stroke-width: 2; stroke: #000000" points="678,631.17 716.95,607.8 755.9,631.17 716.95,654.54 "/>
    <text font-size="12.8" style="fill: #000000;text-anchor:end;font-family:monospace;font-style:normal;font-weight:normal" x="664" y="625.17">N</text>
    <text font-size="12.8" style="fill: #000000;text-anchor:start;font-family:monospace;font-style:normal;font-weight:normal" x="769.9" y="625.17">1</text>
    <text font-size="12.8" style="fill: #000000;text-anchor:middle;font-family:monospace;font-style:normal;font-weight:normal" x="716.95" y="635.17">is_lead</text>
  </g>
  <g>
    <polygon style="fill: #ffffff" points="336,477.17 382.95,449 429.9,477.17 382.95,505.34 "/>
    <polygon style="fill: none; fill-opacity:0; stroke-width: 2; stroke: #000000" points="336,477.17 382.95,449 429.9,477.17 382.95,505.34 "/>
    <polygon style="fill: none; fill-opacity:0; stroke-width: 2; stroke: #000000" points="344,477.17 382.95,453.8 421.9,477.17 382.95,500.54 "/>
    <text font-size="12.8" style="fill: #000000;text-anchor:start;font-family:monospace;font-style:normal;font-weight:normal" x="386.95" y="443">M</text>
    <text font-size="12.8" style="fill: #000000;text-anchor:start;font-family:monospace;font-style:normal;font-weight:normal" x="386.95" y="527.34">N</text>
    <text font-size="12.8" style="fill: #000000;text-anchor:middle;font-family:monospace;font-style:normal;font-weight:normal" x="382.95" y="481.17">lead_in</text>
  </g>
  <g>
    <polygon style="fill: #ffffff" points="270,666.48 320.8,636 371.6,666.48 320.8,696.96 "/>
    <polygon style="fill: none; fill-opacity:0; stroke-width: 2; stroke: #000000" points="270,666.48 320.8,636 371.6,666.48 320.8,696.96 "/>
    <polygon style="fill: none; fill-opacity:0; stroke-width: 2; stroke: #000000" points="278,666.48 320.8,640.8 363.6,666.48 320.8,692.16 "/>
    <text font-size="12.8" style="fill: #000000;text-anchor:end;font-family:monospace;font-style:normal;font-weight:normal" x="264" y="660.48">M</text>
    <text font-size="12.8" style="fill: #000000;text-anchor:start;font-family:monospace;font-style:normal;font-weight:normal" x="377.6" y="660.48">N</text>
    <text font-size="12.8" style="fill: #000000;text-anchor:middle;font-family:monospace;font-style:normal;font-weight:normal" x="320.8" y="670.48">lead_for</text>
  </g>
  <g>
    <polyline style="fill: none; fill-opacity:0; stroke-width: 2; stroke: #000000" points="371.6,663.98 404.296,663.98 404.296,630.5 441.992,630.5 "/>
    <polyline style="fill: none; fill-opacity:0; stroke-width: 2; stroke: #000000" points="371.6,668.98 409.296,668.98 409.296,635.5 441.992,635.5 "/>
  </g>
  <g>
    <polyline style="fill: none; fill-opacity:0; stroke-width: 2; stroke: #000000" points="385.45,506.153 385.45,557.572 513.4,557.572 513.4,613.991 "/>
    <polyline style="fill: none; fill-opacity:0; stroke-width: 2; stroke: #000000" points="380.45,506.153 380.45,562.572 508.4,562.572 508.4,613.991 "/>
  </g>
  <g>
    <polyline style="fill: none; fill-opacity:0; stroke-width: 2; stroke: #000000" points="578.8,630.5 621.406,630.5 621.406,628.67 669.012,628.67 "/>
    <polyline style="fill: none; fill-opacity:0; stroke-width: 2; stroke: #000000" points="578.8,635.5 626.406,635.5 626.406,633.67 669.012,633.67 "/>
  </g>
  <polyline style="fill: none; fill-opacity:0; stroke-width: 2; stroke: #000000" points="812.5,496 812.5,634 763.9,634 763.9,631.17 "/>
  <polyline style="fill: none; fill-opacity:0; stroke-width: 2; stroke: #000000" points="198.8,416 198.8,436 386.048,436 385.144,448.021 "/>
  <polyline style="fill: none; fill-opacity:0; stroke-width: 2; stroke: #000000" points="198.807,669 234.404,669 234.404,666.48 270,666.48 "/>
  <g>
    <ellipse style="fill: #ffffff" cx="152.25" cy="815" rx="39.25" ry="18"/>
    <ellipse style="fill: none; fill-opacity:0; stroke-width: 2; stroke: #000000" cx="152.25" cy="815" rx="39.25" ry="18"/>
    <text font-size="12.8" style="fill: #000000;text-anchor:middle;font-family:monospace;font-style:normal;font-weight:normal" x="152.25" y="819">Tempo</text>
  </g>
  <line style="fill: none; fill-opacity:0; stroke-width: 2; stroke: #000000" x1="170.9" y1="687" x2="152.25" y2="797"/>
  <g>
    <ellipse style="fill: #ffffff" cx="265.2" cy="783" rx="66.2" ry="18"/>
    <ellipse style="fill: none; fill-opacity:0; stroke-width: 2; stroke: #000000" cx="265.2" cy="783" rx="66.2" ry="18"/>
    <text font-size="12.8" style="fill: #000000;text-anchor:middle;font-family:monospace;font-style:normal;font-weight:normal" x="265.2" y="787">MeasureCount</text>
  </g>
  <line style="fill: none; fill-opacity:0; stroke-width: 2; stroke: #000000" x1="170.9" y1="687" x2="218.39" y2="770.272"/>
</svg>
