<?xml version="1.0" encoding="UTF-8" standalone="no"?>
<!DOCTYPE svg PUBLIC "-//W3C//DTD SVG 1.0//EN" "http://www.w3.org/TR/2001/PR-SVG-20010719/DTD/svg10.dtd">
<svg width="58cm" height="32cm" viewBox="-41 39 1154 638" xmlns="http://www.w3.org/2000/svg" xmlns:xlink="http://www.w3.org/1999/xlink">
  <text font-size="22.5778" style="fill: #000000;text-anchor:start;font-family:sans-serif;font-style:normal;font-weight:700" x="720" y="580">
    <tspan x="720" y="580">MARCHING BAND</tspan>
  </text>
  <g>
    <rect style="fill: #ffffff" x="620" y="200" width="81.9" height="36"/>
    <rect style="fill: none; fill-opacity:0; stroke-width: 2; stroke: #000000" x="620" y="200" width="81.9" height="36"/>
    <text font-size="12.8" style="fill: #000000;text-anchor:middle;font-family:monospace;font-style:normal;font-weight:normal" x="660.95" y="222">Student</text>
  </g>
  <g>
    <ellipse style="fill: #ffffff" cx="700" cy="380" rx="20" ry="20"/>
    <ellipse style="fill: none; fill-opacity:0; stroke-width: 2; stroke: #000000" cx="700" cy="380" rx="20" ry="20"/>
    <ellipse style="fill: none; fill-opacity:0; stroke-width: 2; stroke: #000000" cx="700" cy="380" rx="20" ry="20"/>
  </g>
  <g>
    <polyline style="fill: none; fill-opacity:0; stroke-width: 2; stroke: #000000" points="663.45,236 663.45,295.5 702.5,295.5 702.5,360 "/>
    <polyline style="fill: none; fill-opacity:0; stroke-width: 2; stroke: #000000" points="658.45,236 658.45,300.5 697.5,300.5 697.5,360 "/>
  </g>
  <text font-size="12.8" style="fill: #000000;text-anchor:start;font-family:sans-serif;font-style:normal;font-weight:normal" x="700" y="380">
    <tspan x="700" y="380">D</tspan>
  </text>
  <g>
    <rect style="fill: #ffffff" x="620" y="480" width="105" height="36"/>
    <rect style="fill: none; fill-opacity:0; stroke-width: 2; stroke: #000000" x="620" y="480" width="105" height="36"/>
    <text font-size="12.8" style="fill: #000000;text-anchor:middle;font-family:monospace;font-style:normal;font-weight:normal" x="672.5" y="502">Drum Major</text>
  </g>
  <g>
    <rect style="fill: #ffffff" x="540" y="320" width="81.9" height="36"/>
    <rect style="fill: none; fill-opacity:0; stroke-width: 2; stroke: #000000" x="540" y="320" width="81.9" height="36"/>
    <text font-size="12.8" style="fill: #000000;text-anchor:middle;font-family:monospace;font-style:normal;font-weight:normal" x="580.95" y="342">Marcher</text>
  </g>
  <line style="fill: none; fill-opacity:0; stroke-width: 2; stroke: #000000" x1="700" y1="400" x2="672.5" y2="480"/>
  <line style="fill: none; fill-opacity:0; stroke-width: 2; stroke: #000000" x1="680" y1="380" x2="621.9" y2="338"/>
  <g>
    <ellipse style="fill: #ffffff" cx="594.65" cy="118" rx="54.65" ry="18"/>
    <ellipse style="fill: none; fill-opacity:0; stroke-width: 2; stroke: #000000" cx="594.65" cy="118" rx="54.65" ry="18"/>
    <text font-size="12.8" style="fill: #000000;text-anchor:middle;font-family:monospace;font-style:normal;font-weight:normal" x="594.65" y="122">StudentID</text>
    <line style="fill: none; fill-opacity:0; stroke-width: 2; stroke: #000000" x1="560" y1="126" x2="629.3" y2="126"/>
  </g>
  <g>
    <ellipse style="fill: #ffffff" cx="695.4" cy="78" rx="35.4" ry="18"/>
    <ellipse style="fill: none; fill-opacity:0; stroke-width: 2; stroke: #000000" cx="695.4" cy="78" rx="35.4" ry="18"/>
    <text font-size="12.8" style="fill: #000000;text-anchor:middle;font-family:monospace;font-style:normal;font-weight:normal" x="695.4" y="82">Name</text>
  </g>
  <g>
    <ellipse style="fill: #ffffff" cx="779.25" cy="118" rx="39.25" ry="18"/>
    <ellipse style="fill: none; fill-opacity:0; stroke-width: 2; stroke: #000000" cx="779.25" cy="118" rx="39.25" ry="18"/>
    <text font-size="12.8" style="fill: #000000;text-anchor:middle;font-family:monospace;font-style:normal;font-weight:normal" x="779.25" y="122">Major</text>
  </g>
  <line style="fill: none; fill-opacity:0; stroke-width: 2; stroke: #000000" x1="633.293" y1="130.728" x2="660.95" y2="200"/>
  <line style="fill: none; fill-opacity:0; stroke-width: 2; stroke: #000000" x1="695.4" y1="96" x2="660.95" y2="200"/>
  <line style="fill: none; fill-opacity:0; stroke-width: 2; stroke: #000000" x1="779.25" y1="136" x2="660.95" y2="200"/>
  <g>
    <rect style="fill: #ffffff" x="100" y="80" width="74.2" height="36"/>
    <rect style="fill: none; fill-opacity:0; stroke-width: 2; stroke: #000000" x="100" y="80" width="74.2" height="36"/>
    <text font-size="12.8" style="fill: #000000;text-anchor:middle;font-family:monospace;font-style:normal;font-weight:normal" x="137.1" y="102">Season</text>
  </g>
  <g>
    <rect style="fill: #ffffff" x="120" y="640" width="128.1" height="36"/>
    <rect style="fill: none; fill-opacity:0; stroke-width: 2; stroke: #000000" x="120" y="640" width="128.1" height="36"/>
    <rect style="fill: none; fill-opacity:0; stroke-width: 2; stroke: #000000" x="125" y="645" width="118.1" height="26"/>
    <text font-size="12.8" style="fill: #000000;text-anchor:middle;font-family:monospace;font-style:normal;font-weight:normal" x="184.05" y="662">Song Instance</text>
  </g>
  <g>
    <rect style="fill: #ffffff" x="952" y="378" width="81.9" height="36"/>
    <rect style="fill: none; fill-opacity:0; stroke-width: 2; stroke: #000000" x="952" y="378" width="81.9" height="36"/>
    <text font-size="12.8" style="fill: #000000;text-anchor:middle;font-family:monospace;font-style:normal;font-weight:normal" x="992.95" y="400">Uniform</text>
  </g>
  <g>
    <polygon style="fill: #ffffff" points="780,275.1 838.5,240 897,275.1 838.5,310.2 "/>
    <polygon style="fill: none; fill-opacity:0; stroke-width: 2; stroke: #000000" points="780,275.1 838.5,240 897,275.1 838.5,310.2 "/>
    <text font-size="12.8" style="fill: #000000;text-anchor:end;font-family:monospace;font-style:normal;font-weight:normal" x="774" y="269.1">1</text>
    <text font-size="12.8" style="fill: #000000;text-anchor:start;font-family:monospace;font-style:normal;font-weight:normal" x="903" y="269.1">1</text>
    <text font-size="12.8" style="fill: #000000;text-anchor:middle;font-family:monospace;font-style:normal;font-weight:normal" x="838.5" y="279.1">CHECKS_OUT</text>
  </g>
  <g>
    <ellipse style="fill: #ffffff" cx="270.8" cy="58" rx="50.8" ry="18"/>
    <ellipse style="fill: none; fill-opacity:0; stroke-width: 2; stroke: #000000" cx="270.8" cy="58" rx="50.8" ry="18"/>
    <text font-size="12.8" style="fill: #000000;text-anchor:middle;font-family:monospace;font-style:normal;font-weight:normal" x="270.8" y="62">TermCode</text>
    <line style="fill: none; fill-opacity:0; stroke-width: 2; stroke: #000000" x1="240" y1="66" x2="301.6" y2="66"/>
  </g>
  <g>
    <ellipse style="fill: #ffffff" cx="282.35" cy="98" rx="62.35" ry="18"/>
    <ellipse style="fill: none; fill-opacity:0; stroke-width: 2; stroke: #000000" cx="282.35" cy="98" rx="62.35" ry="18"/>
    <text font-size="12.8" style="fill: #000000;text-anchor:middle;font-family:monospace;font-style:normal;font-weight:normal" x="282.35" y="102">Description</text>
  </g>
  <g>
    <ellipse style="fill: #ffffff" cx="443.1" cy="378" rx="43.1" ry="18"/>
    <ellipse style="fill: none; fill-opacity:0; stroke-width: 2; stroke: #000000" cx="443.1" cy="378" rx="43.1" ry="18"/>
    <text font-size="12.8" style="fill: #000000;text-anchor:middle;font-family:monospace;font-style:normal;font-weight:normal" x="443.1" y="382">SongID</text>
    <line style="fill: none; fill-opacity:0; stroke-width: 2; stroke-dasharray: 6; stroke: #000000" x1="420" y1="386" x2="466.2" y2="386"/>
  </g>
  <g>
    <ellipse style="fill: #ffffff" cx="499.25" cy="418" rx="39.25" ry="18"/>
    <ellipse style="fill: none; fill-opacity:0; stroke-width: 2; stroke: #000000" cx="499.25" cy="418" rx="39.25" ry="18"/>
    <text font-size="12.8" style="fill: #000000;text-anchor:middle;font-family:monospace;font-style:normal;font-weight:normal" x="499.25" y="422">Title</text>
  </g>
  <g>
    <ellipse style="fill: #ffffff" cx="510.8" cy="458" rx="50.8" ry="18"/>
    <ellipse style="fill: none; fill-opacity:0; stroke-width: 2; stroke: #000000" cx="510.8" cy="458" rx="50.8" ry="18"/>
    <ellipse style="fill: none; fill-opacity:0; stroke-width: 2; stroke: #000000" cx="510.8" cy="458" rx="42.8" ry="14"/>
    <text font-size="12.8" style="fill: #000000;text-anchor:middle;font-family:monospace;font-style:normal;font-weight:normal" x="510.8" y="462">Composer</text>
  </g>
  <g>
    <ellipse style="fill: #ffffff" cx="1056.65" cy="266" rx="54.65" ry="18"/>
    <ellipse style="fill: none; fill-opacity:0; stroke-width: 2; stroke: #000000" cx="1056.65" cy="266" rx="54.65" ry="18"/>
    <text font-size="12.8" style="fill: #000000;text-anchor:middle;font-family:monospace;font-style:normal;font-weight:normal" x="1056.65" y="270">UniformID</text>
    <line style="fill: none; fill-opacity:0; stroke-width: 2; stroke: #000000" x1="1022" y1="274" x2="1091.3" y2="274"/>
  </g>
  <g>
    <ellipse style="fill: #ffffff" cx="974.2" cy="193" rx="66.2" ry="18"/>
    <ellipse style="fill: none; fill-opacity:0; stroke-width: 2; stroke: #000000" cx="974.2" cy="193" rx="66.2" ry="18"/>
    <text font-size="12.8" style="fill: #000000;text-anchor:middle;font-family:monospace;font-style:normal;font-weight:normal" x="974.2" y="197">PurchaseDate</text>
  </g>
  <line style="fill: none; fill-opacity:0; stroke-width: 2; stroke: #000000" x1="220" y1="58" x2="174.2" y2="98"/>
  <line style="fill: none; fill-opacity:0; stroke-width: 2; stroke: #000000" x1="220" y1="98" x2="174.2" y2="98"/>
  <line style="fill: none; fill-opacity:0; stroke-width: 2; stroke: #000000" x1="981.7" y1="211" x2="992.95" y2="378"/>
  <g>
    <rect style="fill: #ffffff" x="140" y="360" width="58.8" height="36"/>
    <rect style="fill: none; fill-opacity:0; stroke-width: 2; stroke: #000000" x="140" y="360" width="58.8" height="36"/>
    <text font-size="12.8" style="fill: #000000;text-anchor:middle;font-family:monospace;font-style:normal;font-weight:normal" x="169.4" y="382">Show</text>
  </g>
  <g>
    <polygon style="fill: #ffffff" points="320,257.41 382.35,220 444.7,257.41 382.35,294.82 "/>
    <polygon style="fill: none; fill-opacity:0; stroke-width: 2; stroke: #000000" points="320,257.41 382.35,220 444.7,257.41 382.35,294.82 "/>
    <text font-size="12.8" style="fill: #000000;text-anchor:end;font-family:monospace;font-style:normal;font-weight:normal" x="314" y="251.41">M</text>
    <text font-size="12.8" style="fill: #000000;text-anchor:start;font-family:monospace;font-style:normal;font-weight:normal" x="450.7" y="251.41">N</text>
    <text font-size="12.8" style="fill: #000000;text-anchor:middle;font-family:monospace;font-style:normal;font-weight:normal" x="382.35" y="261.41">PARTICIPATE</text>
  </g>
  <g>
    <polygon style="fill: #ffffff" points="60,237.41 122.35,200 184.7,237.41 122.35,274.82 "/>
    <polygon style="fill: none; fill-opacity:0; stroke-width: 2; stroke: #000000" points="60,237.41 122.35,200 184.7,237.41 122.35,274.82 "/>
    <text font-size="12.8" style="fill: #000000;text-anchor:start;font-family:monospace;font-style:normal;font-weight:normal" x="126.35" y="194">1</text>
    <text font-size="12.8" style="fill: #000000;text-anchor:start;font-family:monospace;font-style:normal;font-weight:normal" x="126.35" y="296.82">N</text>
    <text font-size="12.8" style="fill: #000000;text-anchor:middle;font-family:monospace;font-style:normal;font-weight:normal" x="122.35" y="241.41">COMPOSED_OF</text>
  </g>
  <g>
    <polygon style="fill: #ffffff" points="-40,537.41 22.35,500 84.7,537.41 22.35,574.82 "/>
    <polygon style="fill: none; fill-opacity:0; stroke-width: 2; stroke: #000000" points="-40,537.41 22.35,500 84.7,537.41 22.35,574.82 "/>
    <polygon style="fill: none; fill-opacity:0; stroke-width: 2; stroke: #000000" points="-32,537.41 22.35,504.8 76.7,537.41 22.35,570.02 "/>
    <text font-size="12.8" style="fill: #000000;text-anchor:start;font-family:monospace;font-style:normal;font-weight:normal" x="26.35" y="494">M</text>
    <text font-size="12.8" style="fill: #000000;text-anchor:start;font-family:monospace;font-style:normal;font-weight:normal" x="26.35" y="596.82">N</text>
    <text font-size="12.8" style="fill: #000000;text-anchor:middle;font-family:monospace;font-style:normal;font-weight:normal" x="22.35" y="541.41">COMPOSED_OF</text>
  </g>
  <g>
    <ellipse style="fill: #ffffff" cx="35.4" cy="338" rx="35.4" ry="18"/>
    <ellipse style="fill: none; fill-opacity:0; stroke-width: 2; stroke: #000000" cx="35.4" cy="338" rx="35.4" ry="18"/>
    <text font-size="12.8" style="fill: #000000;text-anchor:middle;font-family:monospace;font-style:normal;font-weight:normal" x="35.4" y="342">Date</text>
    <line style="fill: none; fill-opacity:0; stroke-width: 2; stroke: #000000" x1="20" y1="346" x2="50.8" y2="346"/>
  </g>
  <g>
    <ellipse style="fill: #ffffff" cx="338.5" cy="158" rx="58.5" ry="18"/>
    <ellipse style="fill: none; fill-opacity:0; stroke-width: 2; stroke: #000000" cx="338.5" cy="158" rx="58.5" ry="18"/>
    <text font-size="12.8" style="fill: #000000;text-anchor:middle;font-family:monospace;font-style:normal;font-weight:normal" x="338.5" y="162">Instrument</text>
  </g>
  <polyline style="fill: none; fill-opacity:0; stroke-width: 2; stroke: #000000" points="540,338 492.35,338 492.35,257.41 444.7,257.41 "/>
  <polyline style="fill: none; fill-opacity:0; stroke-width: 2; stroke: #000000" points="198.8,378 259.4,378 259.4,257.41 320,257.41 "/>
  <polyline style="fill: none; fill-opacity:0; stroke-width: 2; stroke: #000000" points="122.35,200 122.35,158 137.1,158 137.1,116 "/>
  <g>
    <polyline style="fill: none; fill-opacity:0; stroke-width: 2; stroke: #000000" points="124.85,274.82 124.85,314.91 171.9,314.91 171.9,360 "/>
    <polyline style="fill: none; fill-opacity:0; stroke-width: 2; stroke: #000000" points="119.85,274.82 119.85,319.91 166.9,319.91 166.9,360 "/>
  </g>
  <polyline style="fill: none; fill-opacity:0; stroke-width: 2; stroke: #000000" points="169.4,396 169.4,448 22.35,448 22.35,500 "/>
  <g>
    <polyline style="fill: none; fill-opacity:0; stroke-width: 2; stroke: #000000" points="701.9,215.5 743.45,215.5 743.45,272.6 780,272.6 "/>
    <polyline style="fill: none; fill-opacity:0; stroke-width: 2; stroke: #000000" points="701.9,220.5 738.45,220.5 738.45,277.6 780,277.6 "/>
  </g>
  <polyline style="fill: none; fill-opacity:0; stroke-width: 2; stroke: #000000" points="897,275.1 924.5,275.1 924.5,396 952,396 "/>
  <line style="fill: none; fill-opacity:0; stroke-width: 2; stroke: #000000" x1="344.75" y1="176" x2="382.35" y2="220"/>
  <line style="fill: none; fill-opacity:0; stroke-width: 2; stroke: #000000" x1="70.8" y1="338" x2="140" y2="378"/>
  <line style="fill: none; fill-opacity:0; stroke-width: 2; stroke: #000000" x1="460" y1="418" x2="418.8" y2="438"/>
  <line style="fill: none; fill-opacity:0; stroke-width: 2; stroke: #000000" x1="460" y1="498" x2="418.8" y2="438"/>
  <line style="fill: none; fill-opacity:0; stroke-width: 2; stroke: #000000" x1="418.8" y1="438" x2="443.1" y2="396"/>
  <g>
    <ellipse style="fill: #ffffff" cx="39.25" cy="398" rx="39.25" ry="18"/>
    <ellipse style="fill: none; fill-opacity:0; stroke-width: 2; stroke: #000000" cx="39.25" cy="398" rx="39.25" ry="18"/>
    <text font-size="12.8" style="fill: #000000;text-anchor:middle;font-family:monospace;font-style:normal;font-weight:normal" x="39.25" y="402">Title</text>
  </g>
  <line style="fill: none; fill-opacity:0; stroke-width: 2; stroke: #000000" x1="78.5" y1="398" x2="140" y2="378"/>
  <line style="fill: none; fill-opacity:0; stroke-width: 2; stroke: #000000" x1="1019.65" y1="278.728" x2="992.95" y2="378"/>
  <g>
    <ellipse style="fill: #ffffff" cx="119.25" cy="578" rx="39.25" ry="18"/>
    <ellipse style="fill: none; fill-opacity:0; stroke-width: 2; stroke: #000000" cx="119.25" cy="578" rx="39.25" ry="18"/>
    <text font-size="12.8" style="fill: #000000;text-anchor:middle;font-family:monospace;font-style:normal;font-weight:normal" x="119.25" y="582">order</text>
    <line style="fill: none; fill-opacity:0; stroke-width: 2; stroke-dasharray: 6; stroke: #000000" x1="100" y1="586" x2="138.5" y2="586"/>
  </g>
  <line style="fill: none; fill-opacity:0; stroke-width: 2; stroke: #000000" x1="164.243" y1="639.049" x2="119.25" y2="596"/>
  <g>
    <polygon style="fill: #ffffff" points="420,630.48 470.8,600 521.6,630.48 470.8,660.96 "/>
    <polygon style="fill: none; fill-opacity:0; stroke-width: 2; stroke: #000000" points="420,630.48 470.8,600 521.6,630.48 470.8,660.96 "/>
    <text font-size="12.8" style="fill: #000000;text-anchor:end;font-family:monospace;font-style:normal;font-weight:normal" x="414" y="624.48">N</text>
    <text font-size="12.8" style="fill: #000000;text-anchor:start;font-family:monospace;font-style:normal;font-weight:normal" x="527.6" y="624.48">1</text>
    <text font-size="12.8" style="fill: #000000;text-anchor:middle;font-family:monospace;font-style:normal;font-weight:normal" x="470.8" y="634.48">LEAD_FOR</text>
  </g>
  <polyline style="fill: none; fill-opacity:0; stroke-width: 2; stroke: #000000" points="521.6,630.48 570.8,630.48 570.8,498 620,498 "/>
  <polyline style="fill: none; fill-opacity:0; stroke-width: 2; stroke: #000000" points="248.1,658 334.05,658 334.05,630.48 420,630.48 "/>
  <g>
    <ellipse style="fill: #ffffff" cx="499.25" cy="498" rx="39.25" ry="18"/>
    <ellipse style="fill: none; fill-opacity:0; stroke-width: 2; stroke: #000000" cx="499.25" cy="498" rx="39.25" ry="18"/>
    <text font-size="12.8" style="fill: #000000;text-anchor:middle;font-family:monospace;font-style:normal;font-weight:normal" x="499.25" y="502">Tempo</text>
  </g>
  <line style="fill: none; fill-opacity:0; stroke-width: 2; stroke: #000000" x1="418.8" y1="438" x2="460" y2="458"/>
  <g>
    <ellipse style="fill: #ffffff" cx="486.2" cy="538" rx="66.2" ry="18"/>
    <ellipse style="fill: none; fill-opacity:0; stroke-width: 2; stroke: #000000" cx="486.2" cy="538" rx="66.2" ry="18"/>
    <text font-size="12.8" style="fill: #000000;text-anchor:middle;font-family:monospace;font-style:normal;font-weight:normal" x="486.2" y="542">MeasureCount</text>
  </g>
  <line style="fill: none; fill-opacity:0; stroke-width: 2; stroke: #000000" x1="418.8" y1="438" x2="439.39" y2="525.272"/>
  <g>
    <polyline style="fill: none; fill-opacity:0; stroke-width: 2; stroke: #000000" points="22.35,577.32 22.5,577.32 22.5,655.5 120,655.5 "/>
    <polyline style="fill: none; fill-opacity:0; stroke-width: 2; stroke: #000000" points="22.35,572.32 17.5,572.32 17.5,660.5 120,660.5 "/>
  </g>
  <g>
    <rect style="fill: #ffffff" x="360" y="420" width="58.8" height="36"/>
    <rect style="fill: none; fill-opacity:0; stroke-width: 2; stroke: #000000" x="360" y="420" width="58.8" height="36"/>
    <text font-size="12.8" style="fill: #000000;text-anchor:middle;font-family:monospace;font-style:normal;font-weight:normal" x="389.4" y="442">Song</text>
  </g>
  <g>
    <polygon style="fill: #ffffff" points="220,537.41 282.35,500 344.7,537.41 282.35,574.82 "/>
    <polygon style="fill: none; fill-opacity:0; stroke-width: 2; stroke: #000000" points="220,537.41 282.35,500 344.7,537.41 282.35,574.82 "/>
    <polygon style="fill: none; fill-opacity:0; stroke-width: 2; stroke: #000000" points="228,537.41 282.35,504.8 336.7,537.41 282.35,570.02 "/>
    <text font-size="12.7998" style="fill: #000000;text-anchor:end;font-family:monospace;font-style:normal;font-weight:normal" x="214" y="531.41">N</text>
    <text font-size="12.7998" style="fill: #000000;text-anchor:start;font-family:monospace;font-style:normal;font-weight:normal" x="350.7" y="531.41">1</text>
    <text font-size="12.7998" style="fill: #000000;text-anchor:middle;font-family:monospace;font-style:normal;font-weight:normal" x="282.35" y="541.41">INSTANCE_OF</text>
  </g>
  <g>
    <polyline style="fill: none; fill-opacity:0; stroke-width: 2; stroke: #000000" points="181.55,640 181.55,586.205 217.5,586.205 217.5,537.41 "/>
    <polyline style="fill: none; fill-opacity:0; stroke-width: 2; stroke: #000000" points="186.55,640 186.55,591.205 222.5,591.205 222.5,537.41 "/>
  </g>
  <line style="fill: none; fill-opacity:0; stroke-width: 2; stroke: #000000" x1="360" y1="456" x2="344.7" y2="537.41"/>
</svg>
